{"title":"Support your Local Gunfighter(1971)Mpeg-4[DaScubaDude]","uid":14923145,"size":933142211,"categoryP":"video","categoryS":"movies","magnet":"?xt=urn:btih:ff4b188adba0416125ad4492d4f50f9a67165ed4&amp;dn=Support+your+Local+Gunfighter%281971%29Mpeg-4%5BDaScubaDude%5D&amp;tr=udp%3A%2F%2Ftracker.leechers-paradise.org%3A6969&amp;tr=udp%3A%2F%2Fzer0day.ch%3A1337&amp;tr=udp%3A%2F%2Fopen.demonii.com%3A1337&amp;tr=udp%3A%2F%2Ftracker.coppersurfer.tk%3A6969&amp;tr=udp%3A%2F%2Fexodus.desync.com%3A6969","seeders":0,"leechers":1,"uploader":"dascuba","files":1,"time":1465934886,"description":"Support Your Local Gunfighter (1971)\r\nG | 1h 31min | Comedy, Romance, Western | 3 June 1971 (West Germany)\r\nA con artist arrives in a mining town controlled by two competing companies. Both companies think he's a famous gunfighter and try to hire him to drive the other out of town.\r\nDirector: Burt Kennedy\r\nWriter: James Edward Grant\r\nStars: James Garner, Suzanne Pleshette, Jack Elam |\r\n\r\n\r\nGeneral\r\nComplete name                            : SupLocalGunfighterGUNFIGHTER_Title1.mp4\r\nFormat                                   : MPEG-4\r\nFormat profile                           : Base Media\r\nCodec ID                                 : isom (isom/iso2/avc1/mp41)\r\nFile size                                : 890 MiB\r\nDuration                                 : 1h 32mn\r\nOverall bit rate mode                    : Variable\r\nOverall bit rate                         : 1 351 Kbps\r\nMovie name                               : GUNFIGHTER\r\nGenre                                    : Western\r\nWriting application                      : Lavf54.6.100\r\n\r\nVideo\r\nID                                       : 1\r\nFormat                                   : AVC\r\nFormat/Info                              : Advanced Video Codec\r\nFormat profile                           :   \r\nFormat settings, CABAC                   : No\r\nFormat settings, ReFrames                : 6 frames\r\nCodec ID                                 : avc1\r\nCodec ID/Info                            : Advanced Video Coding\r\nDuration                                 : 1h 32mn\r\nBit rate                                 : 1 211 Kbps\r\nWidth                                    : 720 pixels\r\nHeight                                   : 540 pixels\r\nDisplay aspect ratio                     : 4:3\r\nFrame rate mode                          : Constant\r\nFrame rate                               : 29.970 (30000/1001) fps\r\nColor space                              : YUV\r\nChroma subsampling                       : 4:2:0\r\nBit depth                                : 8 bits\r\nScan type                                : Progressive\r\nBits/(Pixel*Frame)                       : 0.104\r\nStream size                              : 798 MiB (90%)\r\n\r\nAudio\r\nID                                       : 2\r\nFormat                                   : AAC\r\nFormat/Info                              : Advanced Audio Codec\r\nFormat profile                           : LC\r\nCodec ID                                 : 40\r\nDuration                                 : 1h 32mn\r\nBit rate mode                            : Variable\r\nBit rate                                 : 132 Kbps\r\nMaximum bit rate                         : 143 Kbps\r\nChannel(s)                               : 2 channels\r\nChannel positions                        : Front: L R\r\nSampling rate                            : 44.1 KHz\r\nFrame rate                               : 43.066 fps (1024 spf)\r\nCompression mode                         : Lossy\r\nStream size                              : 87.5 MiB (10%)\r\nDefault                                  : Yes\r\nAlternate group                          : 1","torrent":{"xt":"urn:btih:ff4b188adba0416125ad4492d4f50f9a67165ed4","amp;dn":"Support+your+Local+Gunfighter%281971%29Mpeg-4%5BDaScubaDude%5D","amp;tr":["udp%3A%2F%2Ftracker.leechers-paradise.org%3A6969","udp%3A%2F%2Fzer0day.ch%3A1337","udp%3A%2F%2Fopen.demonii.com%3A1337","udp%3A%2F%2Ftracker.coppersurfer.tk%3A6969","udp%3A%2F%2Fexodus.desync.com%3A6969"],"infoHash":"ff4b188adba0416125ad4492d4f50f9a67165ed4","infoHashBuffer":{"type":"Buffer","data":[255,75,24,138,219,160,65,97,37,173,68,146,212,245,15,154,103,22,94,212]},"announce":[],"urlList":[]}}